# xmcd CD database file
#
# Track frame offsets:
#	150
#	36720
#	71068
#	107227
#	132138
#	162301
#	193391
#	212383
#
# Disc length: 3235 seconds
#
# Revision: 0
# Processed by: cddbd v1.5.2PL0 Copyright (c) Steve Scherf et al.
# Submitted via: CDex 1.50
#
DISCID=7b0ca108
DTITLE=Bugge Wesseltoft - Duo
DYEAR=2011
DGENRE=Jazz
TTITLE0=First  Track
TTITLE1=Dreaming
TTITLE2=Leave My Head Alone Brain
TTITLE3=Dudelange
TTITLE4=See You Tomorow
TTITLE5=Kammermusik
TTITLE6=Where Is The Edge
TTITLE7=One One
EXTD=YEAR: 2011
EXTT0=
EXTT1=
EXTT2=
EXTT3=
EXTT4=
EXTT5=
EXTT6=
EXTT7=
PLAYORDER=
